<svg width="25" height="24" viewBox="0 0 25 24" fill="none" xmlns="http://www.w3.org/2000/svg">
<path d="M9.875 2.99993C9.37772 2.99993 8.9008 3.19748 8.54917 3.54911C8.19754 3.90074 8 4.37765 8 4.87493C8 5.37221 8.19754 5.84913 8.54917 6.20076C8.9008 6.55239 9.37772 6.74993 9.875 6.74993H11.75V11.2499H3.875C3.37772 11.2499 2.90081 11.0524 2.54917 10.7008C2.19754 10.3491 2 9.87221 2 9.37493V8.62493C2 7.58893 2.84 6.74993 3.875 6.74993H7.068C6.58181 6.02769 6.39354 5.1455 6.54253 4.2877C6.69152 3.4299 7.16624 2.66286 7.86749 2.14686C8.56875 1.63086 9.44228 1.40582 10.3056 1.51876C11.1688 1.63171 11.9551 2.0739 12.5 2.75293C13.0449 2.0739 13.8312 1.63171 14.6944 1.51876C15.5577 1.40582 16.4313 1.63086 17.1325 2.14686C17.8338 2.66286 18.3085 3.4299 18.4575 4.2877C18.6065 5.1455 18.4182 6.02769 17.932 6.74993H21.875C22.91 6.74993 23.75 7.58993 23.75 8.62493V9.37493C23.75 10.4109 22.91 11.2499 21.875 11.2499H13.25V6.74993H15.125C15.4958 6.74993 15.8584 6.63997 16.1667 6.43394C16.475 6.22791 16.7154 5.93508 16.8573 5.59246C16.9992 5.24985 17.0363 4.87285 16.964 4.50914C16.8916 4.14542 16.713 3.81133 16.4508 3.54911C16.1886 3.28688 15.8545 3.10831 15.4908 3.03596C15.1271 2.96361 14.7501 3.00074 14.4075 3.14266C14.0649 3.28457 13.772 3.5249 13.566 3.83324C13.36 4.14158 13.25 4.50409 13.25 4.87493V6.74993H11.75V4.87493C11.75 3.83893 10.91 2.99993 9.875 2.99993ZM11.75 12.7499H3.5V19.4999C3.5 20.0967 3.73705 20.669 4.15901 21.0909C4.58097 21.5129 5.15326 21.7499 5.75 21.7499H11.75V12.7499ZM13.25 12.7499V21.7499H20C20.5967 21.7499 21.169 21.5129 21.591 21.0909C22.0129 20.669 22.25 20.0967 22.25 19.4999V12.7499H13.25Z" fill="#39A7EE"/>
</svg>
