<svg width="25" height="24" viewBox="0 0 25 24" fill="none" xmlns="http://www.w3.org/2000/svg">
<path d="M21.5 11.25V19.5C21.5 19.8978 21.342 20.2794 21.0607 20.5607C20.7794 20.842 20.3978 21 20 21H5.75C5.35218 21 4.97064 20.842 4.68934 20.5607C4.40804 20.2794 4.25 19.8978 4.25 19.5V11.25M12.5 4.875C12.5 4.35583 12.346 3.84831 12.0576 3.41663C11.7692 2.98495 11.3592 2.6485 10.8795 2.44982C10.3999 2.25114 9.87209 2.19915 9.36289 2.30044C8.85369 2.40173 8.38596 2.65173 8.01884 3.01885C7.65173 3.38596 7.40172 3.85369 7.30044 4.36289C7.19915 4.87209 7.25114 5.39989 7.44982 5.87954C7.6485 6.3592 7.98495 6.76917 8.41663 7.05761C8.84831 7.34605 9.35582 7.5 9.875 7.5H12.5M12.5 4.875V7.5M12.5 4.875C12.5 4.35583 12.654 3.84831 12.9424 3.41663C13.2308 2.98495 13.6408 2.6485 14.1205 2.44982C14.6001 2.25114 15.1279 2.19915 15.6371 2.30044C16.1463 2.40173 16.614 2.65173 16.9812 3.01885C17.3483 3.38596 17.5983 3.85369 17.6996 4.36289C17.8008 4.87209 17.7489 5.39989 17.5502 5.87954C17.3515 6.3592 17.0151 6.76917 16.5834 7.05761C16.1517 7.34605 15.6442 7.5 15.125 7.5H12.5M12.5 7.5V21M3.875 11.25H21.875C22.496 11.25 23 10.746 23 10.125V8.625C23 8.004 22.496 7.5 21.875 7.5H3.875C3.254 7.5 2.75 8.004 2.75 8.625V10.125C2.75 10.746 3.254 11.25 3.875 11.25Z" stroke="#19276F" stroke-width="1.5" stroke-linecap="round" stroke-linejoin="round"/>
</svg>
